<?xml version="1.0" standalone="no"?>
<!DOCTYPE svg PUBLIC "-//W3C//DTD SVG 20010904//EN"
 "http://www.w3.org/TR/2001/REC-SVG-20010904/DTD/svg10.dtd">
<svg version="1.0" xmlns="http://www.w3.org/2000/svg"
 width="314.000000pt" height="314.000000pt" viewBox="0 0 314.000000 314.000000"
 preserveAspectRatio="xMidYMid meet">
<metadata>
Created by potrace 1.11, written by Peter Selinger 2001-2013
</metadata>
<g transform="translate(0.000000,314.000000) scale(0.100000,-0.100000)"
fill="#000000" stroke="none">
<path d="M2481 2543 c28 -79 36 -254 16 -343 -16 -67 -41 -161 -58 -216 -14
-46 -12 -69 18 -184 25 -100 26 -109 14 -195 -40 -289 -148 -552 -286 -691
-63 -63 -123 -97 -206 -116 -75 -17 -134 0 -232 70 -132 94 -158 102 -366 109
-136 5 -150 7 -124 18 31 13 63 50 63 72 0 7 -23 0 -58 -19 -49 -25 -71 -30
-128 -30 -38 0 -82 5 -97 11 -41 16 -77 59 -78 95 -1 26 -3 27 -6 7 -7 -36 24
-106 54 -122 24 -13 18 -14 -88 -20 -126 -6 -158 -17 -257 -91 -54 -40 -105
-64 -132 -63 -50 4 -83 20 -119 61 -42 48 -48 69 -58 189 -5 61 -9 73 -14 50
-23 -101 -2 -232 65 -410 116 -307 224 -449 461 -607 240 -161 636 -141 1030
52 116 57 198 114 276 193 127 128 253 342 305 517 34 113 34 114 85 121 l44
6 -42 1 c-24 1 -43 6 -43 10 0 5 7 59 15 120 8 62 17 174 20 249 11 257 15
305 31 299 12 -5 14 32 14 229 0 129 -5 258 -10 287 -27 140 -45 214 -62 258
-6 14 -14 34 -18 45 -17 43 -41 95 -45 95 -2 0 5 -26 16 -57z m-1101 -1693
c41 -5 98 -12 127 -15 29 -3 66 -12 83 -19 31 -13 29 -13 -51 -20 -150 -12
-690 21 -713 45 -6 6 -3 9 10 10 58 2 116 8 121 13 8 8 332 -3 423 -14z m-507
-170 c16 -25 44 -56 61 -70 23 -18 27 -19 14 -4 -16 18 -25 64 -14 64 3 0 20
-9 38 -19 29 -18 58 -26 158 -46 24 -5 24 -5 6 10 -11 8 -16 15 -10 15 5 0 60
2 123 5 101 5 113 4 107 -11 -5 -14 1 -15 46 -9 93 12 158 33 179 57 37 44 61
89 55 103 -10 27 3 16 21 -17 22 -44 22 -178 -1 -233 -51 -121 -169 -186 -268
-149 -86 33 -311 45 -381 20 -46 -15 -51 -15 -90 2 -50 22 -98 74 -128 139
-27 61 -37 188 -19 244 l13 40 30 -48 c17 -26 43 -68 60 -93z m356 94 c210 -7
259 -14 190 -28 -95 -19 -449 -1 -449 23 0 13 13 22 26 17 6 -2 111 -8 233
-12z"/>
<path d="M910 555 c0 -14 114 -95 134 -95 6 0 -9 12 -34 26 -25 14 -57 37 -72
52 -16 14 -28 22 -28 17z"/>
<path d="M1645 2180 c-22 -4 -74 -14 -115 -21 -41 -7 -85 -19 -97 -27 -30 -19
-30 -57 1 -77 36 -24 174 -21 278 6 115 29 216 24 278 -14 25 -15 57 -37 72
-49 15 -12 31 -19 35 -15 23 24 -120 176 -183 195 -45 13 -206 14 -269 2z"/>
<path d="M540 2158 c-35 -18 -51 -35 -72 -78 -15 -30 -28 -68 -27 -85 l0 -30
31 38 c34 42 75 67 111 67 13 0 57 -9 98 -20 80 -21 189 -26 220 -10 27 15 25
65 -3 84 -27 17 -146 42 -243 51 -61 6 -76 3 -115 -17z"/>
<path d="M382 1836 c-2 -211 -4 -237 -17 -226 -13 11 -15 8 -15 -17 0 -16 4
-33 9 -39 6 -5 11 -36 13 -69 6 -109 19 266 16 430 -3 137 -4 126 -6 -79z"/>
<path d="M571 1726 c-53 -18 -108 -68 -117 -109 -10 -45 12 -57 29 -15 25 61
116 118 186 118 28 0 27 -8 -4 -32 -14 -11 -33 -34 -42 -51 -29 -56 -17 -164
21 -189 6 -4 52 -8 101 -8 80 0 94 3 128 25 20 14 37 30 37 35 0 6 5 10 11 10
7 0 9 -10 7 -25 -3 -14 -1 -25 3 -25 8 0 26 80 20 89 -2 2 3 7 10 11 19 13
-85 116 -148 147 -67 32 -175 40 -242 19z m177 -102 c2 -22 -2 -33 -14 -38
-25 -9 -52 2 -59 25 -9 27 13 51 44 47 21 -2 27 -9 29 -34z"/>
<path d="M1667 1730 c-107 -27 -208 -126 -207 -202 1 -19 5 -16 23 18 31 57
57 88 102 118 53 36 60 33 29 -14 -34 -50 -42 -121 -21 -172 19 -45 49 -53
168 -46 76 5 82 7 117 41 44 43 57 46 48 12 -4 -14 -2 -25 3 -25 12 0 21 36
21 83 0 47 -21 99 -54 132 -18 18 -21 25 -10 25 31 0 113 -51 148 -91 37 -44
50 -35 18 13 -45 69 -137 109 -262 114 -47 2 -102 -1 -123 -6z m51 -82 c18
-18 14 -56 -7 -68 -26 -14 -50 -3 -57 26 -11 42 34 72 64 42z"/>
<path d="M2665 1548 c-33 -32 -74 -108 -57 -108 4 0 16 13 25 30 10 16 32 39
50 52 37 25 48 39 41 50 -9 15 -24 8 -59 -24z"/>
</g>
</svg>
